<svg width="16" height="21" viewBox="0 0 16 21" fill="none" xmlns="http://www.w3.org/2000/svg">
<path d="M6.13442 9.03612L7.74542 7.56012C8.18592 7.15575 8.49553 6.62897 8.63451 6.04739C8.77349 5.46581 8.7355 4.85596 8.52542 4.29612L7.83842 2.46162C7.58176 1.77675 7.07364 1.2155 6.41758 0.892207C5.76152 0.568916 5.00689 0.507912 4.30742 0.721623C1.73342 1.50912 -0.245079 3.90162 0.363921 6.74262C0.764421 8.61162 1.53092 10.9576 2.98292 13.4536C4.43792 15.9556 6.09992 17.8036 7.52492 19.1026C9.67592 21.0601 12.7509 20.5711 14.7294 18.7261C15.2595 18.2314 15.581 17.5534 15.6287 16.8299C15.6763 16.1065 15.4465 15.3921 14.9859 14.8321L13.7259 13.3021C13.3459 12.8394 12.8361 12.5011 12.2622 12.3305C11.6883 12.16 11.0764 12.1651 10.5054 12.3451L8.42342 13.0006C7.88543 12.446 7.41423 11.8303 7.01942 11.1661C6.63844 10.4945 6.34123 9.77861 6.13442 9.03462" fill="#212121" fill-opacity="0.6"/>
</svg>
